<svg aria-hidden="true" style="position: absolute; width: 0; height: 0; overflow: hidden;" version="1.1" xmlns="http://www.w3.org/2000/svg" xmlns:xlink="http://www.w3.org/1999/xlink">
<defs>
<symbol id="icon-twitter" viewBox="0 0 37 32">
<path fill="#fff" style="fill: var(--color1, #fff)" d="M33.469 8.283c1.458-1.094 2.771-2.406 3.792-3.938-1.312 0.583-2.844 1.021-4.375 1.167 1.604-0.948 2.771-2.406 3.354-4.229-1.458 0.875-3.135 1.531-4.812 1.896-1.458-1.531-3.427-2.406-5.615-2.406-4.229 0-7.656 3.427-7.656 7.656 0 0.583 0.073 1.167 0.219 1.75-6.344-0.365-12.031-3.427-15.823-8.021-0.656 1.094-1.021 2.406-1.021 3.865 0 2.625 1.313 4.958 3.427 6.344-1.24-0.073-2.479-0.365-3.5-0.948v0.073c0 3.719 2.625 6.781 6.125 7.511-0.583 0.146-1.313 0.292-1.969 0.292-0.51 0-0.948-0.073-1.458-0.146 0.948 3.063 3.792 5.25 7.146 5.323-2.625 2.042-5.906 3.281-9.479 3.281-0.656 0-1.24-0.073-1.823-0.146 3.354 2.187 7.365 3.427 11.74 3.427 14.073 0 21.729-11.594 21.729-21.729 0-0.365 0-0.656 0-1.021z"></path>
</symbol>
<symbol id="icon-facebook" viewBox="0 0 32 32">
<path fill="#fff" style="fill: var(--color1, #fff)" d="M31.5 16.343c0-8.563-6.938-15.5-15.5-15.5s-15.5 6.938-15.5 15.5c0 7.75 5.625 14.188 13.063 15.312v-10.812h-3.938v-4.5h3.938v-3.375c0-3.875 2.313-6.063 5.812-6.063 1.75 0 3.5 0.313 3.5 0.313v3.813h-1.937c-1.938 0-2.562 1.187-2.562 2.438v2.875h4.313l-0.688 4.5h-3.625v10.812c7.437-1.125 13.125-7.562 13.125-15.312z"></path>
</symbol>
<symbol id="icon-linkedin" viewBox="0 0 32 32">
<path fill="#fff" style="fill: var(--color1, #fff)" d="M7.25 32v-21.099h-6.563v21.099h6.563zM3.933 8.079c2.117 0 3.81-1.764 3.81-3.881 0-2.046-1.694-3.74-3.81-3.74-2.046 0-3.74 1.694-3.74 3.74 0 2.117 1.694 3.881 3.74 3.881zM31.736 32h0.071v-11.573c0-5.645-1.27-10.020-7.903-10.020-3.175 0-5.292 1.764-6.21 3.387h-0.070v-2.893h-6.28v21.099h6.562v-10.444c0-2.752 0.494-5.363 3.881-5.363s3.458 3.105 3.458 5.575v10.232h6.492z"></path>
</symbol>
<symbol id="icon-youtube" viewBox="0 0 45 32">
<path fill="#fff" style="fill: var(--color1, #fff)" d="M43.664 5.831c-0.486-1.944-2.025-3.484-3.889-3.97-3.484-0.972-17.257-0.972-17.257-0.972s-13.854 0-17.338 0.972c-1.863 0.486-3.403 2.025-3.889 3.97-0.972 3.403-0.972 10.695-0.972 10.695s0 7.211 0.972 10.694c0.486 1.944 2.025 3.403 3.889 3.889 3.484 0.891 17.338 0.891 17.338 0.891s13.773 0 17.257-0.891c1.863-0.486 3.403-1.944 3.889-3.889 0.972-3.484 0.972-10.694 0.972-10.694s0-7.292-0.972-10.694zM17.982 23.088v-13.125l11.505 6.563-11.505 6.563z"></path>
</symbol>
<symbol id="icon-logo" viewBox="0 0 41 32">
<path fill="#28a745" style="fill: var(--color2, #28a745)" d="M38.196 0.197c-3.86 0.219-11.533 1.018-16.27 3.923-0.327 0.2-0.512 0.557-0.512 0.929v25.676c0 0.815 0.89 1.33 1.64 0.952 4.873-2.457 11.921-3.127 15.406-3.311 1.19-0.063 2.115-1.018 2.115-2.163v-23.84c0.001-1.25-1.081-2.24-2.379-2.166zM18.649 4.12c-4.736-2.904-12.409-3.703-16.269-3.923-1.298-0.073-2.38 0.917-2.38 2.166v23.84c0 1.146 0.925 2.101 2.115 2.163 3.486 0.183 10.538 0.855 15.411 3.313 0.748 0.378 1.635-0.137 1.635-0.95v-25.694c0-0.373-0.185-0.716-0.512-0.917z"></path>
</symbol>
</defs>
</svg>
